<svg width="24" height="20" viewBox="0 0 24 20" fill="none" xmlns="http://www.w3.org/2000/svg">
<path d="M23 1.01C23 1.01 20.982 2.202 19.86 2.54C19.2577 1.84751 18.4573 1.35669 17.567 1.13392C16.6767 0.911159 15.7395 0.967194 14.8821 1.29445C14.0247 1.62171 13.2884 2.2044 12.773 2.96371C12.2575 3.72303 11.9877 4.62233 12 5.54V6.54C10.2426 6.58557 8.50127 6.19581 6.93101 5.40544C5.36074 4.61508 4.01032 3.44863 3 2.01C3 2.01 -1 11.01 8 15.01C5.94053 16.408 3.48716 17.1089 1 17.01C10 22.01 21 17.01 21 5.51C21 5.232 20.972 4.954 20.92 4.68C21.94 3.674 23 1.01 23 1.01Z" stroke="#5C5B5B" stroke-width="1.5" stroke-linecap="round" stroke-linejoin="round"/>
</svg>
