<svg width="32" height="32" viewBox="0 0 32 32" fill="none" xmlns="http://www.w3.org/2000/svg">
<path d="M16 8.8125C14.5784 8.8125 13.1888 9.23404 12.0068 10.0238C10.8249 10.8136 9.90362 11.9361 9.35962 13.2495C8.81561 14.5628 8.67327 16.008 8.95061 17.4022C9.22794 18.7964 9.91248 20.0771 10.9177 21.0823C11.9229 22.0875 13.2036 22.7721 14.5978 23.0494C15.992 23.3267 17.4372 23.1844 18.7505 22.6404C20.0639 22.0964 21.1864 21.1751 21.9762 19.9932C22.766 18.8112 23.1875 17.4216 23.1875 16C23.1875 14.0938 22.4302 12.2656 21.0823 10.9177C19.7344 9.56975 17.9062 8.8125 16 8.8125ZM16 21.3125C14.9493 21.3125 13.9222 21.0009 13.0485 20.4172C12.1749 19.8334 11.494 19.0037 11.0919 18.033C10.6898 17.0623 10.5846 15.9941 10.7896 14.9636C10.9946 13.9331 11.5005 12.9865 12.2435 12.2435C12.9865 11.5005 13.9331 10.9946 14.9636 10.7896C15.9941 10.5846 17.0623 10.6898 18.033 11.0919C19.0037 11.494 19.8334 12.1749 20.4172 13.0485C21.0009 13.9222 21.3125 14.9493 21.3125 16C21.3084 17.4077 20.7473 18.7566 19.7519 19.7519C18.7566 20.7473 17.4077 21.3084 16 21.3125ZM22.875 0.6875H9.125C6.88724 0.6875 4.74113 1.57645 3.15879 3.15879C1.57645 4.74113 0.6875 6.88724 0.6875 9.125V22.875C0.6875 25.1128 1.57645 27.2589 3.15879 28.8412C4.74113 30.4236 6.88724 31.3125 9.125 31.3125H22.875C25.1128 31.3125 27.2589 30.4236 28.8412 28.8412C30.4236 27.2589 31.3125 25.1128 31.3125 22.875V9.125C31.3125 6.88724 30.4236 4.74113 28.8412 3.15879C27.2589 1.57645 25.1128 0.6875 22.875 0.6875ZM29.4375 22.875C29.4375 24.6155 28.7461 26.2847 27.5154 27.5154C26.2847 28.7461 24.6155 29.4375 22.875 29.4375H9.125C7.38452 29.4375 5.71532 28.7461 4.48461 27.5154C3.2539 26.2847 2.5625 24.6155 2.5625 22.875V9.125C2.5625 7.38452 3.2539 5.71532 4.48461 4.48461C5.71532 3.2539 7.38452 2.5625 9.125 2.5625H22.875C24.6155 2.5625 26.2847 3.2539 27.5154 4.48461C28.7461 5.71532 29.4375 7.38452 29.4375 9.125V22.875ZM25.6875 7.875C25.6875 8.18403 25.5959 8.48613 25.4242 8.74308C25.2525 9.00003 25.0085 9.2003 24.7229 9.31856C24.4374 9.43682 24.1233 9.46777 23.8202 9.40748C23.5171 9.34719 23.2387 9.19837 23.0201 8.97985C22.8016 8.76133 22.6528 8.48292 22.5925 8.17983C22.5322 7.87673 22.5632 7.56257 22.6814 7.27706C22.7997 6.99155 23 6.74752 23.2569 6.57583C23.5139 6.40414 23.816 6.3125 24.125 6.3125C24.5394 6.3125 24.9368 6.47712 25.2299 6.77015C25.5229 7.06317 25.6875 7.4606 25.6875 7.875Z" fill="#5C5B5B"/>
</svg>
