<svg width="58" height="58" viewBox="0 0 58 58" fill="none" xmlns="http://www.w3.org/2000/svg">
<g filter="url(#filter0_d_0_1)">
<circle cx="29" cy="25" r="19" fill="white"/>
</g>
<path d="M38.8055 23.0415H38V23H29V27H34.6515C33.827 29.3285 31.6115 31 29 31C25.6865 31 23 28.3135 23 25C23 21.6865 25.6865 19 29 19C30.5295 19 31.921 19.577 32.9805 20.5195L35.809 17.691C34.023 16.0265 31.634 15 29 15C23.4775 15 19 19.4775 19 25C19 30.5225 23.4775 35 29 35C34.5225 35 39 30.5225 39 25C39 24.3295 38.931 23.675 38.8055 23.0415Z" fill="#FFC107"/>
<path d="M20.1523 20.3455L23.4378 22.755C24.3268 20.554 26.4798 19 28.9993 19C30.5288 19 31.9203 19.577 32.9798 20.5195L35.8083 17.691C34.0223 16.0265 31.6333 15 28.9993 15C25.1583 15 21.8273 17.1685 20.1523 20.3455Z" fill="#FF3D00"/>
<path d="M29.0002 35C31.5832 35 33.9302 34.0115 35.7047 32.404L32.6097 29.785C31.5719 30.5742 30.3039 31.001 29.0002 31C26.3992 31 24.1907 29.3415 23.3587 27.027L20.0977 29.5395C21.7527 32.778 25.1137 35 29.0002 35Z" fill="#4CAF50"/>
<path d="M38.8055 23.0415H38V23H29V27H34.6515C34.2571 28.1082 33.5467 29.0766 32.608 29.7855L32.6095 29.7845L35.7045 32.4035C35.4855 32.6025 39 30 39 25C39 24.3295 38.931 23.675 38.8055 23.0415Z" fill="#1976D2"/>
<defs>
<filter id="filter0_d_0_1" x="0" y="0" width="58" height="58" filterUnits="userSpaceOnUse" color-interpolation-filters="sRGB">
<feFlood flood-opacity="0" result="BackgroundImageFix"/>
<feColorMatrix in="SourceAlpha" type="matrix" values="0 0 0 0 0 0 0 0 0 0 0 0 0 0 0 0 0 0 127 0" result="hardAlpha"/>
<feOffset dy="4"/>
<feGaussianBlur stdDeviation="5"/>
<feComposite in2="hardAlpha" operator="out"/>
<feColorMatrix type="matrix" values="0 0 0 0 0 0 0 0 0 0 0 0 0 0 0 0 0 0 0.15 0"/>
<feBlend mode="normal" in2="BackgroundImageFix" result="effect1_dropShadow_0_1"/>
<feBlend mode="normal" in="SourceGraphic" in2="effect1_dropShadow_0_1" result="shape"/>
</filter>
</defs>
</svg>
