<svg width="44" height="44" viewBox="0 0 44 44" fill="none" xmlns="http://www.w3.org/2000/svg">
<rect width="44" height="44" rx="5" fill="black"/>
<path d="M32.4328 26.8217H17.3127L18.0719 25.2754L30.6859 25.2525C31.1125 25.2525 31.4781 24.9479 31.5543 24.5264L33.3012 14.7484C33.3469 14.492 33.2783 14.2279 33.1107 14.0273C33.0279 13.9286 32.9246 13.8491 32.808 13.7943C32.6914 13.7395 32.5642 13.7107 32.4354 13.71L16.3885 13.6566L16.2514 13.0117C16.165 12.6004 15.7943 12.3008 15.3729 12.3008H11.45C11.2123 12.3008 10.9843 12.3952 10.8162 12.5633C10.6481 12.7314 10.5537 12.9594 10.5537 13.1971C10.5537 13.4348 10.6481 13.6628 10.8162 13.8308C10.9843 13.9989 11.2123 14.0934 11.45 14.0934H14.6467L15.2459 16.9422L16.7211 24.0846L14.8219 27.1848C14.7232 27.3179 14.6638 27.4759 14.6504 27.6411C14.6369 27.8062 14.6699 27.9718 14.7457 28.1191C14.898 28.4213 15.2053 28.6117 15.5455 28.6117H17.14C16.8001 29.0632 16.6165 29.6132 16.617 30.1783C16.617 31.6154 17.785 32.7834 19.2221 32.7834C20.6592 32.7834 21.8271 31.6154 21.8271 30.1783C21.8271 29.6121 21.6393 29.0611 21.3041 28.6117H25.3945C25.0546 29.0632 24.871 29.6132 24.8715 30.1783C24.8715 31.6154 26.0395 32.7834 27.4766 32.7834C28.9137 32.7834 30.0816 31.6154 30.0816 30.1783C30.0816 29.6121 29.8937 29.0611 29.5586 28.6117H32.4354C32.9279 28.6117 33.3316 28.2105 33.3316 27.7154C33.3302 27.478 33.2348 27.2507 33.0664 27.0833C32.8981 26.9159 32.6703 26.8218 32.4328 26.8217V26.8217ZM16.7617 15.4238L31.3816 15.4721L29.9496 23.4904L18.4654 23.5107L16.7617 15.4238ZM19.2221 30.9807C18.7803 30.9807 18.4197 30.6201 18.4197 30.1783C18.4197 29.7365 18.7803 29.376 19.2221 29.376C19.6639 29.376 20.0244 29.7365 20.0244 30.1783C20.0244 30.3911 19.9399 30.5952 19.7894 30.7457C19.6389 30.8961 19.4349 30.9807 19.2221 30.9807V30.9807ZM27.4766 30.9807C27.0348 30.9807 26.6742 30.6201 26.6742 30.1783C26.6742 29.7365 27.0348 29.376 27.4766 29.376C27.9184 29.376 28.2789 29.7365 28.2789 30.1783C28.2789 30.3911 28.1944 30.5952 28.0439 30.7457C27.8934 30.8961 27.6894 30.9807 27.4766 30.9807V30.9807Z" fill="white"/>
</svg>
