<svg width="45" height="44" viewBox="0 0 45 44" fill="none" xmlns="http://www.w3.org/2000/svg">
<rect width="45" height="44" rx="5" fill="black"/>
<path d="M32.4355 16.2008C32.0952 15.4128 31.6045 14.6987 30.9908 14.0985C30.3767 13.4965 29.6526 13.0181 28.858 12.6893C28.034 12.347 27.1503 12.1718 26.258 12.1738C25.0063 12.1738 23.785 12.5166 22.7236 13.1641C22.4697 13.319 22.2285 13.4891 22 13.6744C21.7715 13.4891 21.5303 13.319 21.2764 13.1641C20.215 12.5166 18.9937 12.1738 17.742 12.1738C16.8406 12.1738 15.9672 12.3465 15.142 12.6893C14.3447 13.0194 13.6262 13.4942 13.0092 14.0985C12.3947 14.698 11.9039 15.4123 11.5645 16.2008C11.2115 17.0209 11.0312 17.8918 11.0312 18.7881C11.0312 19.6336 11.2039 20.5147 11.5467 21.4109C11.8336 22.16 12.2449 22.9369 12.7705 23.7215C13.6033 24.9631 14.7484 26.258 16.1703 27.5707C18.5266 29.7467 20.86 31.2498 20.959 31.3107L21.5607 31.6967C21.8273 31.8668 22.1701 31.8668 22.4367 31.6967L23.0385 31.3107C23.1375 31.2473 25.4684 29.7467 27.8271 27.5707C29.249 26.258 30.3941 24.9631 31.227 23.7215C31.7525 22.9369 32.1664 22.16 32.4508 21.4109C32.7936 20.5147 32.9662 19.6336 32.9662 18.7881C32.9688 17.8918 32.7885 17.0209 32.4355 16.2008ZM22 29.6883C22 29.6883 12.9609 23.8967 12.9609 18.7881C12.9609 16.2008 15.1014 14.1035 17.742 14.1035C19.598 14.1035 21.2078 15.1395 22 16.6527C22.7922 15.1395 24.402 14.1035 26.258 14.1035C28.8986 14.1035 31.0391 16.2008 31.0391 18.7881C31.0391 23.8967 22 29.6883 22 29.6883Z" fill="white"/>
</svg>
