<svg width="44" height="44" viewBox="0 0 44 44" fill="none" xmlns="http://www.w3.org/2000/svg">
<rect width="44" height="44" rx="5" fill="black"/>
<path d="M21.8125 20.375H17.875M33.625 31.75L28.5782 26.8815L33.625 31.75ZM31.375 20.375C31.375 22.8172 30.3675 25.1594 28.5742 26.8863C26.7809 28.6132 24.3486 29.5834 21.8125 29.5834C19.2764 29.5834 16.8441 28.6132 15.0508 26.8863C13.2575 25.1594 12.25 22.8172 12.25 20.375C12.25 17.9328 13.2575 15.5906 15.0508 13.8637C16.8441 12.1368 19.2764 11.1667 21.8125 11.1667C24.3486 11.1667 26.7809 12.1368 28.5742 13.8637C30.3675 15.5906 31.375 17.9328 31.375 20.375V20.375ZM21.8125 16.5834V20.375V16.5834ZM21.8125 20.375V24.1667V20.375ZM21.8125 20.375H25.75H21.8125Z" stroke="white" stroke-width="2" stroke-linecap="round"/>
</svg>
